<svg xmlns="http://www.w3.org/2000/svg" width="186" height="38"><path d="M0 0v29.542h5.961v-9.707h5.312a10.263 10.263 0 007.343-2.87 9.821 9.821 0 000-14.1A10.262 10.262 0 0011.273 0H0zm5.961 14.39V5.445h5.312a4.474 4.474 0 010 8.947H5.961zm23.191-5.951H23.58v21.1h5.572V19.456a4.8 4.8 0 011.987-4.347 6.609 6.609 0 014.578-1.013V8.019c-2.937 0-5.529 1.35-6.565 4.051V8.441zm28.892 12.787a13.885 13.885 0 00.216-2.237 10.951 10.951 0 00-3.11-7.934 10.3 10.3 0 00-7.818-3.207 11.032 11.032 0 00-8.206 3.207 11.44 11.44 0 00.043 15.91 11.746 11.746 0 008.6 3.165c4.147 0 7.3-1.519 9.416-4.515l-4.492-2.532a5.791 5.791 0 01-4.837 2.11c-3.326 0-5.356-1.308-6.091-3.967h16.284zm-16.37-4.22a5.363 5.363 0 015.658-4.262 5.194 5.194 0 015.356 4.262H41.674zm30.759-9.158a8.4 8.4 0 00-7 3.081v-2.49h-5.572v29.543h5.572v-10.93a8.4 8.4 0 007 3.081 9.852 9.852 0 007.43-3.207 11.621 11.621 0 000-15.825 9.892 9.892 0 00-7.43-3.251zM67.12 23.3a5.881 5.881 0 01-1.684-4.3 6.046 6.046 0 0110.237-4.262A5.592 5.592 0 0177.401 19a5.75 5.75 0 01-1.728 4.3 6.378 6.378 0 01-8.553 0z" fill-rule="evenodd" fill="#46b846"/><path data-name="PrepAway" d="M111.38 29.542L100.755 0h-7.386L82.786 29.542h6.436l1.814-5.318h12.051l1.814 5.318h6.479zM97.08 6.711l4.15 12.069h-8.293zm33.658 14.728l-3.93-13h-5.27L117.611 21.4l-3.672-12.956h-5.917l6.867 21.1h5.311l3.974-12.787 3.974 12.787h5.313l6.867-21.1h-5.917zm26.292-10.508a8.542 8.542 0 00-7.04-3.081 9.959 9.959 0 00-7.43 3.249 11.743 11.743 0 000 15.825 9.918 9.918 0 007.43 3.207 8.541 8.541 0 007.04-3.081v2.49h5.572V8.44h-5.572v2.49zM146.753 23.3a5.881 5.881 0 01-1.684-4.3 6.046 6.046 0 0110.236-4.262A5.588 5.588 0 01157.033 19a5.746 5.746 0 01-1.728 4.3 6.377 6.377 0 01-8.552 0zm28.494-.675l-5.615-14.18h-6.09l8.858 20.421c-1.037 2.87-2.678 4.094-5.659 4.051v5.064c5.529.3 9.157-2.363 11.4-8.44L186 8.441h-5.961z" fill="#354c5e" fill-rule="evenodd"/></svg>